<?xml version="1.0" encoding="UTF-8" standalone="no"?>
<!-- Created with Inkscape (http://www.inkscape.org/) -->

<svg
   xmlns:dc="http://purl.org/dc/elements/1.1/"
   xmlns:cc="http://creativecommons.org/ns#"
   xmlns:rdf="http://www.w3.org/1999/02/22-rdf-syntax-ns#"
   xmlns:svg="http://www.w3.org/2000/svg"
   xmlns="http://www.w3.org/2000/svg"
   xmlns:sodipodi="http://sodipodi.sourceforge.net/DTD/sodipodi-0.dtd"
   xmlns:inkscape="http://www.inkscape.org/namespaces/inkscape"
   width="45.403427mm"
   height="21.256769mm"
   viewBox="0 0 45.403427 21.256769"
   version="1.1"
   id="svg4643"
   inkscape:version="0.92.3 (3ce5693, 2018-03-11)"
   sodipodi:docname="logo.svg">
  <defs
     id="defs4637" />
  <sodipodi:namedview
     id="base"
     pagecolor="#ffffff"
     bordercolor="#666666"
     borderopacity="1.0"
     inkscape:pageopacity="0.0"
     inkscape:pageshadow="2"
     inkscape:zoom="1"
     inkscape:cx="156.15889"
     inkscape:cy="59.692939"
     inkscape:document-units="mm"
     inkscape:current-layer="layer1"
     showgrid="false"
     fit-margin-top="0"
     fit-margin-left="0"
     fit-margin-right="0"
     fit-margin-bottom="0"
     inkscape:window-width="1920"
     inkscape:window-height="1052"
     inkscape:window-x="2048"
     inkscape:window-y="0"
     inkscape:window-maximized="1" />
  <metadata
     id="metadata4640">
    <rdf:RDF>
      <cc:Work
         rdf:about="">
        <dc:format>image/svg+xml</dc:format>
        <dc:type
           rdf:resource="http://purl.org/dc/dcmitype/StillImage" />
        <dc:title></dc:title>
      </cc:Work>
    </rdf:RDF>
  </metadata>
  <g
     inkscape:label="Layer 1"
     inkscape:groupmode="layer"
     id="layer1"
     transform="translate(-64.516293,-143.37032)">
    <path
       inkscape:connector-curvature="0"
       style="font-style:normal;font-weight:normal;font-size:94.79178619px;line-height:1.25;font-family:sans-serif;letter-spacing:0px;word-spacing:0px;fill:#666666;fill-opacity:1;stroke:none;stroke-width:0.57552081"
       d="m 96.457108,143.37032 -3.637736,0.66603 0.02485,3.06947 -1.481521,0.2712 -1.790001,0.32781 -0.02485,-3.06947 -3.637731,0.66602 0.02485,3.06935 -1.48165,0.27133 v 0.01 a 8.5061847,8.5061847 0 0 1 4.072466,7.24686 8.5061847,8.5061847 0 0 1 -0.990317,3.97244 c 0.640322,0.3871 1.449496,0.49821 2.428292,0.3322 0.695603,-0.11211 1.331093,-0.32362 1.906472,-0.63465 l -0.228538,-2.74656 c -0.471035,0.13194 -0.784597,0.20844 -0.940745,0.22941 -0.400745,0.0581 -0.670311,7.3e-4 -0.808596,-0.17194 -0.130915,-0.1741 -0.204906,-0.45383 -0.222132,-0.83921 l -0.07731,-5.66531 1.801046,-0.32981 v 1.2e-4 l 1.48165,-0.27133 0.113953,6.11573 c 0.10058,1.13195 0.490433,1.97092 1.169405,2.51702 0.678971,0.54611 1.583681,0.72336 2.71418,0.53162 0.695602,-0.11211 1.331093,-0.32374 1.906472,-0.63478 l -0.228538,-2.74643 c -0.471035,0.13194 -0.784726,0.20844 -0.940873,0.22941 -0.400746,0.0581 -0.670183,7.3e-4 -0.808468,-0.17193 -0.130915,-0.17411 -0.205035,-0.45384 -0.222261,-0.83922 l -0.07731,-5.66531 1.912865,-0.35027 -0.02033,-2.67026 -1.912864,0.35015 z m 13.462612,0.6093 -4.01361,0.7348 -1.86919,7.26732 -1.87911,-6.58109 -3.759346,0.68824 4.086896,11.5249 -0.33747,1.09034 c -0.15293,0.45463 -0.38609,0.78292 -0.69953,0.98505 -0.31209,0.2095 -0.69291,0.35542 -1.14255,0.43774 l -0.420175,0.0769 0.211465,2.71532 c 0.67836,0.0434 1.22753,0.0267 1.64769,-0.0502 0.94352,-0.17273 1.70982,-0.56452 2.2989,-1.17518 0.59781,-0.60463 1.05928,-1.49664 1.38427,-2.67603 z m -41.610949,3.34432 -3.792478,0.69426 0.161019,16.60889 10.304527,-1.88651 a 8.5061847,8.5061847 0 0 1 -2.354122,-2.65445 l -4.195832,0.76819 z"
       id="text3715-5" />
    <path
       inkscape:connector-curvature="0"
       style="fill:#37c837;fill-opacity:1;stroke-width:0.06202813"
       d="m 80.364651,149.55281 a 7.354763,7.354763 0 0 0 -7.354786,7.35479 7.354763,7.354763 0 0 0 7.354786,7.35479 7.354763,7.354763 0 0 0 7.354662,-7.35479 7.354763,7.354763 0 0 0 -7.354662,-7.35479 z m -0.498857,1.45266 c 0.565825,-0.0184 1.431236,1.88644 1.958794,2.08895 0.544582,0.20904 2.570428,-0.68902 2.888128,-0.1998 0.317701,0.48922 -1.326627,1.97466 -1.357154,2.55718 -0.03053,0.58253 1.449535,2.23162 1.082435,2.68495 -0.3671,0.45332 -2.287908,-0.65147 -2.851353,-0.5005 -0.563448,0.15098 -1.67451,2.0682 -2.21909,1.85916 -0.544575,-0.20905 -0.08741,-2.37733 -0.405107,-2.86655 -0.317708,-0.48921 -2.484428,-0.95334 -2.453901,-1.53586 0.03053,-0.58252 2.233887,-0.81773 2.600982,-1.27106 0.3671,-0.45333 0.139101,-2.65758 0.702549,-2.80856 0.01761,-0.005 0.03546,-0.007 0.05372,-0.008 z"
       id="circle3719-2" />
  </g>
</svg>
